<?xml version="1.0" encoding="UTF-8" standalone="no" ?>
<!DOCTYPE svg PUBLIC "-//W3C//DTD SVG 1.1//EN" "http://www.w3.org/Graphics/SVG/1.1/DTD/svg11.dtd">
<svg xmlns="http://www.w3.org/2000/svg" xmlns:xlink="http://www.w3.org/1999/xlink" version="1.1" width="395.2299645996094" height="132.86" xml:space="preserve">
<desc>Created with Fabric.js 1.6.0-rc.1</desc>
<defs></defs>
<g style="stroke: none; stroke-width: 1; stroke-dasharray: none; stroke-linecap: butt; stroke-linejoin: miter; stroke-miterlimit: 10; fill: none; fill-rule: nonzero; opacity: 1;" transform="translate(9.999999999999993 9.999999999999993) scale(0.22 0.22)" >
  <circle cx="256" cy="256" r="256" style="stroke: none; stroke-width: 1; stroke-dasharray: none; stroke-linecap: butt; stroke-linejoin: miter; stroke-miterlimit: 10; fill: #197ec8; fill-rule: nonzero; opacity: 1;" transform="  matrix(1 0 0 1 0 0) "/>
  <path d="M 273.501 283.927 h -61.37 l 73.007 -160.344 c 6.391 -14.038 22.956 -20.238 36.99 -13.843 c 14.033 6.395 20.238 22.952 13.843 36.985 L 273.501 283.927 z" style="stroke: none; stroke-width: 1; stroke-dasharray: none; stroke-linecap: butt; stroke-linejoin: miter; stroke-miterlimit: 10; fill: #EDBC7C; fill-rule: nonzero; opacity: 1;" transform=" matrix(1 0 0 1 0 0) " stroke-linecap="round" />
  <path d="M 273.501 283.927 l 35.03 -76.93 c 6.386 -3.267 13.396 -5.669 21.09 -6.851 c 13.801 -2.122 116.364 9.309 46.545 83.782 H 273.501 z" style="stroke: none; stroke-width: 1; stroke-dasharray: none; stroke-linecap: butt; stroke-linejoin: miter; stroke-miterlimit: 10; fill: #8F4D38; fill-rule: nonzero; opacity: 1;" transform=" matrix(1 0 0 1 0 0) " stroke-linecap="round" />
  <path d="M 335.346 122.345 c -2.774 -5.371 -7.284 -9.905 -13.219 -12.605 c -14.038 -6.395 -30.599 -0.195 -36.99 13.843 l -40.937 89.907 L 335.346 122.345 z" style="stroke: none; stroke-width: 1; stroke-dasharray: none; stroke-linecap: butt; stroke-linejoin: miter; stroke-miterlimit: 10; fill: #F4D0A1; fill-rule: nonzero; opacity: 1;" transform=" matrix(1 0 0 1 0 0) " stroke-linecap="round" />
  <path d="M 249.744 201.309 c 3.672 -0.735 7.889 -1.164 12.386 -1.164 c 14.141 0 25.6 4.17 25.6 9.309 c 0 5.143 -11.46 9.309 -25.6 9.309 c -7.512 0 -14.257 -1.182 -18.935 -3.058 L 249.744 201.309 z" style="stroke: none; stroke-width: 1; stroke-dasharray: none; stroke-linecap: butt; stroke-linejoin: miter; stroke-miterlimit: 10; fill: #D4A263; fill-rule: nonzero; opacity: 1;" transform=" matrix(1 0 0 1 0 0) " stroke-linecap="round" />
  <path d="M 284.062 125.943 c 1.927 -0.172 3.928 -0.27 5.995 -0.27 c 14.141 0 25.6 4.17 25.6 9.309 c 0 5.143 -11.46 9.309 -25.6 9.309 c -5.041 0 -9.728 -0.535 -13.689 -1.457 L 284.062 125.943 z" style="stroke: none; stroke-width: 1; stroke-dasharray: none; stroke-linecap: butt; stroke-linejoin: miter; stroke-miterlimit: 10; fill: #D4A263; fill-rule: nonzero; opacity: 1;" transform=" matrix(1 0 0 1 0 0) " stroke-linecap="round" />
  <path d="M 266.947 163.533 c 2.844 -0.396 5.921 -0.624 9.146 -0.624 c 14.141 0 25.6 4.17 25.6 9.309 c 0 5.143 -11.459 9.309 -25.6 9.309 c -6.223 0 -11.925 -0.805 -16.365 -2.155 L 266.947 163.533 z" style="stroke: none; stroke-width: 1; stroke-dasharray: none; stroke-linecap: butt; stroke-linejoin: miter; stroke-miterlimit: 10; fill: #D4A263; fill-rule: nonzero; opacity: 1;" transform=" matrix(1 0 0 1 0 0) " stroke-linecap="round" />
  <circle cx="341.27200000000005" cy="230.542" r="6.982" style="stroke: none; stroke-width: 1; stroke-dasharray: none; stroke-linecap: butt; stroke-linejoin: miter; stroke-miterlimit: 10; fill: #EDBC7C; fill-rule: nonzero; opacity: 1;" transform="  matrix(1 0 0 1 0 0) "/>
  <circle cx="345.922" cy="267.77200000000005" r="6.982" style="stroke: none; stroke-width: 1; stroke-dasharray: none; stroke-linecap: butt; stroke-linejoin: miter; stroke-miterlimit: 10; fill: #EDBC7C; fill-rule: nonzero; opacity: 1;" transform="  matrix(1 0 0 1 0 0) "/>
  <circle cx="373.85200000000003" cy="244.362" r="6.982" style="stroke: none; stroke-width: 1; stroke-dasharray: none; stroke-linecap: butt; stroke-linejoin: miter; stroke-miterlimit: 10; fill: #EDBC7C; fill-rule: nonzero; opacity: 1;" transform="  matrix(1 0 0 1 0 0) "/>
  <circle cx="313.34200000000004" cy="253.672" r="6.982" style="stroke: none; stroke-width: 1; stroke-dasharray: none; stroke-linecap: butt; stroke-linejoin: miter; stroke-miterlimit: 10; fill: #EDBC7C; fill-rule: nonzero; opacity: 1;" transform="  matrix(1 0 0 1 0 0) "/>
  <path d="M 226.001 253.468 l 6.94 -15.248 c 3.226 -0.526 6.8 -0.838 10.57 -0.838 c 14.141 0 25.6 4.17 25.6 9.309 c 0 5.143 -11.459 9.309 -25.6 9.309 C 236.73 256 230.582 255.036 226.001 253.468 z" style="stroke: none; stroke-width: 1; stroke-dasharray: none; stroke-linecap: butt; stroke-linejoin: miter; stroke-miterlimit: 10; fill: #D4A263; fill-rule: nonzero; opacity: 1;" transform=" matrix(1 0 0 1 0 0) " stroke-linecap="round" />
  <polygon points="260.79,311.86 260.75,311.94 260.57,311.86 " style="stroke: none; stroke-width: 1; stroke-dasharray: none; stroke-linecap: butt; stroke-linejoin: miter; stroke-miterlimit: 10; fill: #EDBC7C; fill-rule: nonzero; opacity: 1;" transform="  matrix(1 0 0 1 0 0) "/>
  <path d="M 349.091 335.29 c 0 -2.569 2.081 -4.655 4.655 -4.655 h 25.069 l 7.512 -18.781 H 125.673 l 7.647 19.116 c 0.517 -0.2 1.071 -0.335 1.662 -0.335 h 27.927 c 2.574 0 4.655 2.085 4.655 4.655 c 0 2.574 -2.081 4.655 -4.655 4.655 h -26 l 14.895 37.236 h 11.106 c 2.574 0 4.655 2.085 4.655 4.655 c 0 2.574 -2.081 4.655 -4.655 4.655 h -7.382 l 5.041 12.605 c 1.415 3.533 4.836 5.851 8.643 5.851 h 173.577 c 3.807 0 7.233 -2.318 8.643 -5.851 l 5.041 -12.605 h -2.728 c -2.574 0 -4.655 -2.081 -4.655 -4.655 c 0 -2.569 2.081 -4.655 4.655 -4.655 h 6.451 l 14.895 -37.236 h -21.346 C 351.171 339.945 349.091 337.864 349.091 335.29 z M 311.855 330.636 h 18.618 c 2.574 0 4.655 2.085 4.655 4.655 c 0 2.574 -2.081 4.655 -4.655 4.655 h -18.618 c -2.574 0 -4.655 -2.081 -4.655 -4.655 C 307.2 332.721 309.281 330.636 311.855 330.636 z M 311.855 358.563 c 0 2.574 -2.081 4.655 -4.655 4.655 h -18.618 c -2.574 0 -4.655 -2.081 -4.655 -4.655 c 0 -2.569 2.081 -4.655 4.655 -4.655 H 307.2 C 309.774 353.908 311.855 355.994 311.855 358.563 z M 269.964 330.636 h 18.618 c 2.574 0 4.655 2.085 4.655 4.655 c 0 2.574 -2.081 4.655 -4.655 4.655 h -18.618 c -2.574 0 -4.655 -2.081 -4.655 -4.655 C 265.309 332.721 267.39 330.636 269.964 330.636 z M 269.964 358.563 c 0 2.574 -2.081 4.655 -4.655 4.655 h -18.618 c -2.574 0 -4.655 -2.081 -4.655 -4.655 c 0 -2.569 2.081 -4.655 4.655 -4.655 h 18.618 C 267.883 353.908 269.964 355.994 269.964 358.563 z M 228.073 330.636 h 18.618 c 2.574 0 4.655 2.085 4.655 4.655 c 0 2.574 -2.081 4.655 -4.655 4.655 h -18.618 c -2.574 0 -4.655 -2.081 -4.655 -4.655 C 223.418 332.721 225.499 330.636 228.073 330.636 z M 228.073 358.563 c 0 2.574 -2.081 4.655 -4.655 4.655 H 204.8 c -2.574 0 -4.655 -2.081 -4.655 -4.655 c 0 -2.569 2.081 -4.655 4.655 -4.655 h 18.618 C 225.992 353.908 228.073 355.994 228.073 358.563 z M 186.182 330.636 H 204.8 c 2.574 0 4.655 2.085 4.655 4.655 c 0 2.574 -2.081 4.655 -4.655 4.655 h -18.618 c -2.574 0 -4.655 -2.081 -4.655 -4.655 C 181.527 332.721 183.608 330.636 186.182 330.636 z M 162.909 363.217 c -2.574 0 -4.655 -2.081 -4.655 -4.655 c 0 -2.569 2.081 -4.655 4.655 -4.655 h 18.618 c 2.574 0 4.655 2.085 4.655 4.655 c 0 2.574 -2.081 4.655 -4.655 4.655 H 162.909 z M 204.8 386.49 h -18.618 c -2.574 0 -4.655 -2.081 -4.655 -4.655 c 0 -2.569 2.081 -4.655 4.655 -4.655 H 204.8 c 2.574 0 4.655 2.085 4.655 4.655 C 209.455 384.41 207.374 386.49 204.8 386.49 z M 246.691 386.49 h -18.618 c -2.574 0 -4.655 -2.081 -4.655 -4.655 c 0 -2.569 2.081 -4.655 4.655 -4.655 h 18.618 c 2.574 0 4.655 2.085 4.655 4.655 C 251.345 384.41 249.265 386.49 246.691 386.49 z M 288.582 386.49 h -18.618 c -2.574 0 -4.655 -2.081 -4.655 -4.655 c 0 -2.569 2.081 -4.655 4.655 -4.655 h 18.618 c 2.574 0 4.655 2.085 4.655 4.655 C 293.236 384.41 291.156 386.49 288.582 386.49 z M 330.473 386.49 h -18.618 c -2.574 0 -4.655 -2.081 -4.655 -4.655 c 0 -2.569 2.081 -4.655 4.655 -4.655 h 18.618 c 2.574 0 4.655 2.085 4.655 4.655 C 335.127 384.41 333.047 386.49 330.473 386.49 z M 349.091 363.217 h -18.618 c -2.574 0 -4.655 -2.081 -4.655 -4.655 c 0 -2.569 2.081 -4.655 4.655 -4.655 h 18.618 c 2.574 0 4.655 2.085 4.655 4.655 C 353.745 361.137 351.665 363.217 349.091 363.217 z" style="stroke: none; stroke-width: 1; stroke-dasharray: none; stroke-linecap: butt; stroke-linejoin: miter; stroke-miterlimit: 10; fill: #F8E1C2; fill-rule: nonzero; opacity: 1;" transform=" matrix(1 0 0 1 0 0) " stroke-linecap="round" />
  <path d="M 167.564 381.836 c 0 -2.569 -2.081 -4.655 -4.655 -4.655 h -11.106 l 3.724 9.309 h 7.382 C 165.483 386.49 167.564 384.41 167.564 381.836 z" style="stroke: none; stroke-width: 1; stroke-dasharray: none; stroke-linecap: butt; stroke-linejoin: miter; stroke-miterlimit: 10; fill: #F4D0A1; fill-rule: nonzero; opacity: 1;" transform=" matrix(1 0 0 1 0 0) " stroke-linecap="round" />
  <path d="M 204.8 377.181 h -18.618 c -2.574 0 -4.655 2.085 -4.655 4.655 c 0 2.574 2.081 4.655 4.655 4.655 H 204.8 c 2.574 0 4.655 -2.081 4.655 -4.655 C 209.455 379.266 207.374 377.181 204.8 377.181 z" style="stroke: none; stroke-width: 1; stroke-dasharray: none; stroke-linecap: butt; stroke-linejoin: miter; stroke-miterlimit: 10; fill: #F4D0A1; fill-rule: nonzero; opacity: 1;" transform=" matrix(1 0 0 1 0 0) " stroke-linecap="round" />
  <path d="M 246.691 377.181 h -18.618 c -2.574 0 -4.655 2.085 -4.655 4.655 c 0 2.574 2.081 4.655 4.655 4.655 h 18.618 c 2.574 0 4.655 -2.081 4.655 -4.655 C 251.345 379.266 249.265 377.181 246.691 377.181 z" style="stroke: none; stroke-width: 1; stroke-dasharray: none; stroke-linecap: butt; stroke-linejoin: miter; stroke-miterlimit: 10; fill: #F4D0A1; fill-rule: nonzero; opacity: 1;" transform=" matrix(1 0 0 1 0 0) " stroke-linecap="round" />
  <path d="M 288.582 377.181 h -18.618 c -2.574 0 -4.655 2.085 -4.655 4.655 c 0 2.574 2.081 4.655 4.655 4.655 h 18.618 c 2.574 0 4.655 -2.081 4.655 -4.655 C 293.236 379.266 291.156 377.181 288.582 377.181 z" style="stroke: none; stroke-width: 1; stroke-dasharray: none; stroke-linecap: butt; stroke-linejoin: miter; stroke-miterlimit: 10; fill: #F4D0A1; fill-rule: nonzero; opacity: 1;" transform=" matrix(1 0 0 1 0 0) " stroke-linecap="round" />
  <path d="M 330.473 377.181 h -18.618 c -2.574 0 -4.655 2.085 -4.655 4.655 c 0 2.574 2.081 4.655 4.655 4.655 h 18.618 c 2.574 0 4.655 -2.081 4.655 -4.655 C 335.127 379.266 333.047 377.181 330.473 377.181 z" style="stroke: none; stroke-width: 1; stroke-dasharray: none; stroke-linecap: butt; stroke-linejoin: miter; stroke-miterlimit: 10; fill: #F4D0A1; fill-rule: nonzero; opacity: 1;" transform=" matrix(1 0 0 1 0 0) " stroke-linecap="round" />
  <path d="M 349.091 381.836 c 0 2.574 2.081 4.655 4.655 4.655 h 2.728 l 3.724 -9.309 h -6.451 C 351.171 377.181 349.091 379.266 349.091 381.836 z" style="stroke: none; stroke-width: 1; stroke-dasharray: none; stroke-linecap: butt; stroke-linejoin: miter; stroke-miterlimit: 10; fill: #F4D0A1; fill-rule: nonzero; opacity: 1;" transform=" matrix(1 0 0 1 0 0) " stroke-linecap="round" />
  <path d="M 186.182 358.563 c 0 -2.569 -2.081 -4.655 -4.655 -4.655 h -18.618 c -2.574 0 -4.655 2.085 -4.655 4.655 c 0 2.574 2.081 4.655 4.655 4.655 h 18.618 C 184.101 363.217 186.182 361.137 186.182 358.563 z" style="stroke: none; stroke-width: 1; stroke-dasharray: none; stroke-linecap: butt; stroke-linejoin: miter; stroke-miterlimit: 10; fill: #F4D0A1; fill-rule: nonzero; opacity: 1;" transform=" matrix(1 0 0 1 0 0) " stroke-linecap="round" />
  <path d="M 200.145 358.563 c 0 2.574 2.081 4.655 4.655 4.655 h 18.618 c 2.574 0 4.655 -2.081 4.655 -4.655 c 0 -2.569 -2.081 -4.655 -4.655 -4.655 H 204.8 C 202.226 353.908 200.145 355.994 200.145 358.563 z" style="stroke: none; stroke-width: 1; stroke-dasharray: none; stroke-linecap: butt; stroke-linejoin: miter; stroke-miterlimit: 10; fill: #F4D0A1; fill-rule: nonzero; opacity: 1;" transform=" matrix(1 0 0 1 0 0) " stroke-linecap="round" />
  <path d="M 242.036 358.563 c 0 2.574 2.081 4.655 4.655 4.655 h 18.618 c 2.574 0 4.655 -2.081 4.655 -4.655 c 0 -2.569 -2.081 -4.655 -4.655 -4.655 h -18.618 C 244.117 353.908 242.036 355.994 242.036 358.563 z" style="stroke: none; stroke-width: 1; stroke-dasharray: none; stroke-linecap: butt; stroke-linejoin: miter; stroke-miterlimit: 10; fill: #F4D0A1; fill-rule: nonzero; opacity: 1;" transform=" matrix(1 0 0 1 0 0) " stroke-linecap="round" />
  <path d="M 283.927 358.563 c 0 2.574 2.081 4.655 4.655 4.655 H 307.2 c 2.574 0 4.655 -2.081 4.655 -4.655 c 0 -2.569 -2.081 -4.655 -4.655 -4.655 h -18.618 C 286.008 353.908 283.927 355.994 283.927 358.563 z" style="stroke: none; stroke-width: 1; stroke-dasharray: none; stroke-linecap: butt; stroke-linejoin: miter; stroke-miterlimit: 10; fill: #F4D0A1; fill-rule: nonzero; opacity: 1;" transform=" matrix(1 0 0 1 0 0) " stroke-linecap="round" />
  <path d="M 349.091 353.908 h -18.618 c -2.574 0 -4.655 2.085 -4.655 4.655 c 0 2.574 2.081 4.655 4.655 4.655 h 18.618 c 2.574 0 4.655 -2.081 4.655 -4.655 C 353.745 355.994 351.665 353.908 349.091 353.908 z" style="stroke: none; stroke-width: 1; stroke-dasharray: none; stroke-linecap: butt; stroke-linejoin: miter; stroke-miterlimit: 10; fill: #F4D0A1; fill-rule: nonzero; opacity: 1;" transform=" matrix(1 0 0 1 0 0) " stroke-linecap="round" />
  <path d="M 167.564 335.29 c 0 -2.569 -2.081 -4.655 -4.655 -4.655 h -27.927 c -0.591 0 -1.145 0.135 -1.662 0.335 l 3.589 8.974 h 26 C 165.483 339.945 167.564 337.864 167.564 335.29 z" style="stroke: none; stroke-width: 1; stroke-dasharray: none; stroke-linecap: butt; stroke-linejoin: miter; stroke-miterlimit: 10; fill: #F4D0A1; fill-rule: nonzero; opacity: 1;" transform=" matrix(1 0 0 1 0 0) " stroke-linecap="round" />
  <path d="M 186.182 339.945 H 204.8 c 2.574 0 4.655 -2.081 4.655 -4.655 c 0 -2.569 -2.081 -4.655 -4.655 -4.655 h -18.618 c -2.574 0 -4.655 2.085 -4.655 4.655 C 181.527 337.864 183.608 339.945 186.182 339.945 z" style="stroke: none; stroke-width: 1; stroke-dasharray: none; stroke-linecap: butt; stroke-linejoin: miter; stroke-miterlimit: 10; fill: #F4D0A1; fill-rule: nonzero; opacity: 1;" transform=" matrix(1 0 0 1 0 0) " stroke-linecap="round" />
  <path d="M 228.073 339.945 h 18.618 c 2.574 0 4.655 -2.081 4.655 -4.655 c 0 -2.569 -2.081 -4.655 -4.655 -4.655 h -18.618 c -2.574 0 -4.655 2.085 -4.655 4.655 C 223.418 337.864 225.499 339.945 228.073 339.945 z" style="stroke: none; stroke-width: 1; stroke-dasharray: none; stroke-linecap: butt; stroke-linejoin: miter; stroke-miterlimit: 10; fill: #F4D0A1; fill-rule: nonzero; opacity: 1;" transform=" matrix(1 0 0 1 0 0) " stroke-linecap="round" />
  <path d="M 269.964 339.945 h 18.618 c 2.574 0 4.655 -2.081 4.655 -4.655 c 0 -2.569 -2.081 -4.655 -4.655 -4.655 h -18.618 c -2.574 0 -4.655 2.085 -4.655 4.655 C 265.309 337.864 267.39 339.945 269.964 339.945 z" style="stroke: none; stroke-width: 1; stroke-dasharray: none; stroke-linecap: butt; stroke-linejoin: miter; stroke-miterlimit: 10; fill: #F4D0A1; fill-rule: nonzero; opacity: 1;" transform=" matrix(1 0 0 1 0 0) " stroke-linecap="round" />
  <path d="M 311.855 339.945 h 18.618 c 2.574 0 4.655 -2.081 4.655 -4.655 c 0 -2.569 -2.081 -4.655 -4.655 -4.655 h -18.618 c -2.574 0 -4.655 2.085 -4.655 4.655 C 307.2 337.864 309.281 339.945 311.855 339.945 z" style="stroke: none; stroke-width: 1; stroke-dasharray: none; stroke-linecap: butt; stroke-linejoin: miter; stroke-miterlimit: 10; fill: #F4D0A1; fill-rule: nonzero; opacity: 1;" transform=" matrix(1 0 0 1 0 0) " stroke-linecap="round" />
  <path d="M 353.745 330.636 c -2.574 0 -4.655 2.085 -4.655 4.655 c 0 2.574 2.081 4.655 4.655 4.655 h 21.346 l 3.724 -9.309 H 353.745 z" style="stroke: none; stroke-width: 1; stroke-dasharray: none; stroke-linecap: butt; stroke-linejoin: miter; stroke-miterlimit: 10; fill: #F4D0A1; fill-rule: nonzero; opacity: 1;" transform=" matrix(1 0 0 1 0 0) " stroke-linecap="round" />
  <path d="M 107.055 302.545 c 0 5.143 4.17 9.309 9.309 9.309 h 279.273 c 5.139 0 9.309 -4.166 9.309 -9.309 v -9.309 c 0 -5.139 -4.17 -9.309 -9.309 -9.309 H 116.364 c -5.139 0 -9.309 4.17 -9.309 9.309 V 302.545 z" style="stroke: none; stroke-width: 1; stroke-dasharray: none; stroke-linecap: butt; stroke-linejoin: miter; stroke-miterlimit: 10; fill: #FFFFFF; fill-rule: nonzero; opacity: 1;" transform=" matrix(1 0 0 1 0 0) " stroke-linecap="round" />
  <path d="M 130.984 283.927 h 101.692 c 0.931 -43.674 -30.943 -91.038 -72.657 -101.194 c -8.858 -2.16 -18.199 -0.991 -26.252 3.291 c -19.875 10.57 -29.217 33.932 -22.114 55.287 C 115.689 253.459 122.917 269.117 130.984 283.927 z" style="stroke: none; stroke-width: 1; stroke-dasharray: none; stroke-linecap: butt; stroke-linejoin: miter; stroke-miterlimit: 10; fill: #733725; fill-rule: nonzero; opacity: 1;" transform=" matrix(1 0 0 1 0 0) " stroke-linecap="round" />
  <path d="M 160.014 182.733 c -8.858 -2.16 -18.199 -0.991 -26.252 3.291 c -19.875 10.57 -29.217 33.932 -22.114 55.287 c 3.496 10.51 9.379 23.64 16.114 36.58 l 72.001 -72.001 C 188.439 194.695 174.853 186.345 160.014 182.733 z" style="stroke: none; stroke-width: 1; stroke-dasharray: none; stroke-linecap: butt; stroke-linejoin: miter; stroke-miterlimit: 10; fill: #8F4D38; fill-rule: nonzero; opacity: 1;" transform=" matrix(1 0 0 1 0 0) " stroke-linecap="round" />
  <path d="M 162.081 183.31 c 9.807 2.7 19.046 7.438 27.411 13.698 c -15.816 20.145 -41.318 45.857 -47.621 39.545 C 136.164 230.856 149.681 204.181 162.081 183.31 z" style="stroke: none; stroke-width: 1; stroke-dasharray: none; stroke-linecap: butt; stroke-linejoin: miter; stroke-miterlimit: 10; fill: #D4A263; fill-rule: nonzero; opacity: 1;" transform=" matrix(1 0 0 1 0 0) " stroke-linecap="round" />
  <path d="M 206.964 213.76 c 7.177 8.657 13.13 18.516 17.496 28.951 c -15.881 19.628 -39.34 42.719 -45.354 36.71 C 172.172 272.486 193.634 234.584 206.964 213.76 z" style="stroke: none; stroke-width: 1; stroke-dasharray: none; stroke-linecap: butt; stroke-linejoin: miter; stroke-miterlimit: 10; fill: #D4A263; fill-rule: nonzero; opacity: 1;" transform=" matrix(1 0 0 1 0 0) " stroke-linecap="round" />
</g>
  <g transform="translate(202.44 65.66) scale(0.96 1)">
   <text font-family="ADAMCG PRO" font-size="40" font-weight="normal" style="stroke: none; stroke-width: 1; stroke-dasharray: none; stroke-linecap: butt; stroke-linejoin: miter; stroke-miterlimit: 10; fill: #3d5eb3; fill-rule: nonzero; opacity: 1;" ><tspan x="-80.07" y="8.98" style="stroke: none; stroke-width: 0; stroke-dasharray: none; stroke-linecap: butt; stroke-linejoin: miter; stroke-miterlimit: 4; fill: #3d5eb3; fill-rule: ; opacity: 1;">C</tspan><tspan x="-53" y="8.98" style="stroke: none; stroke-width: 0; stroke-dasharray: none; stroke-linecap: butt; stroke-linejoin: miter; stroke-miterlimit: 4; fill: #3d5eb3; fill-rule: ; opacity: 1;">a</tspan><tspan x="-25.21" y="8.98" style="stroke: none; stroke-width: 0; stroke-dasharray: none; stroke-linecap: butt; stroke-linejoin: miter; stroke-miterlimit: 4; fill: #3d5eb3; fill-rule: ; opacity: 1;">m</tspan><tspan x="8.9" y="8.98" style="stroke: none; stroke-width: 0; stroke-dasharray: none; stroke-linecap: butt; stroke-linejoin: miter; stroke-miterlimit: 4; fill: #3d5eb3; fill-rule: ; opacity: 1;">p</tspan><tspan x="31.32" y="8.98" style="stroke: none; stroke-width: 0; stroke-dasharray: none; stroke-linecap: butt; stroke-linejoin: miter; stroke-miterlimit: 4; fill: #3d5eb3; fill-rule: ; opacity: 1;">U</tspan><tspan x="58.96" y="8.98" style="stroke: none; stroke-width: 0; stroke-dasharray: none; stroke-linecap: butt; stroke-linejoin: miter; stroke-miterlimit: 4; fill: #3d5eb3; fill-rule: ; opacity: 1;">S</tspan></text>
 </g>
  <g transform="translate(253.52 96.43) scale(0.43 0.43)">
   <text font-family="ADAMCG PRO" font-size="40" font-weight="normal" style="stroke: none; stroke-width: 1; stroke-dasharray: none; stroke-linecap: butt; stroke-linejoin: miter; stroke-miterlimit: 10; fill: #0e1354; fill-rule: nonzero; opacity: 1;" ><tspan x="-298.18" y="8.98" style="stroke: none; stroke-width: 0; stroke-dasharray: none; stroke-linecap: butt; stroke-linejoin: miter; stroke-miterlimit: 4; fill: #0e1354; fill-rule: ; opacity: 1;">W</tspan><tspan x="-253.36" y="8.98" style="stroke: none; stroke-width: 0; stroke-dasharray: none; stroke-linecap: butt; stroke-linejoin: miter; stroke-miterlimit: 4; fill: #0e1354; fill-rule: ; opacity: 1;">h</tspan><tspan x="-226.05" y="8.98" style="stroke: none; stroke-width: 0; stroke-dasharray: none; stroke-linecap: butt; stroke-linejoin: miter; stroke-miterlimit: 4; fill: #0e1354; fill-rule: ; opacity: 1;">e</tspan><tspan x="-202.79" y="8.98" style="stroke: none; stroke-width: 0; stroke-dasharray: none; stroke-linecap: butt; stroke-linejoin: miter; stroke-miterlimit: 4; fill: #0e1354; fill-rule: ; opacity: 1;">r</tspan><tspan x="-177.17" y="8.98" style="stroke: none; stroke-width: 0; stroke-dasharray: none; stroke-linecap: butt; stroke-linejoin: miter; stroke-miterlimit: 4; fill: #0e1354; fill-rule: ; opacity: 1;">e</tspan><tspan x="-153.91" y="8.98" style="stroke: none; stroke-width: 0; stroke-dasharray: none; stroke-linecap: butt; stroke-linejoin: miter; stroke-miterlimit: 4; fill: #0e1354; fill-rule: ; opacity: 1;"> </tspan><tspan x="-141.91" y="8.98" style="stroke: none; stroke-width: 0; stroke-dasharray: none; stroke-linecap: butt; stroke-linejoin: miter; stroke-miterlimit: 4; fill: #0e1354; fill-rule: ; opacity: 1;">T</tspan><tspan x="-118.55" y="8.98" style="stroke: none; stroke-width: 0; stroke-dasharray: none; stroke-linecap: butt; stroke-linejoin: miter; stroke-miterlimit: 4; fill: #0e1354; fill-rule: ; opacity: 1;">a</tspan><tspan x="-90.76" y="8.98" style="stroke: none; stroke-width: 0; stroke-dasharray: none; stroke-linecap: butt; stroke-linejoin: miter; stroke-miterlimit: 4; fill: #0e1354; fill-rule: ; opacity: 1;">s</tspan><tspan x="-69.65" y="8.98" style="stroke: none; stroke-width: 0; stroke-dasharray: none; stroke-linecap: butt; stroke-linejoin: miter; stroke-miterlimit: 4; fill: #0e1354; fill-rule: ; opacity: 1;">t</tspan><tspan x="-46.29" y="8.98" style="stroke: none; stroke-width: 0; stroke-dasharray: none; stroke-linecap: butt; stroke-linejoin: miter; stroke-miterlimit: 4; fill: #0e1354; fill-rule: ; opacity: 1;">e</tspan><tspan x="-23.03" y="8.98" style="stroke: none; stroke-width: 0; stroke-dasharray: none; stroke-linecap: butt; stroke-linejoin: miter; stroke-miterlimit: 4; fill: #0e1354; fill-rule: ; opacity: 1;"> </tspan><tspan x="-11.04" y="8.98" style="stroke: none; stroke-width: 0; stroke-dasharray: none; stroke-linecap: butt; stroke-linejoin: miter; stroke-miterlimit: 4; fill: #0e1354; fill-rule: ; opacity: 1;">m</tspan><tspan x="23.07" y="8.98" style="stroke: none; stroke-width: 0; stroke-dasharray: none; stroke-linecap: butt; stroke-linejoin: miter; stroke-miterlimit: 4; fill: #0e1354; fill-rule: ; opacity: 1;">e</tspan><tspan x="46.33" y="8.98" style="stroke: none; stroke-width: 0; stroke-dasharray: none; stroke-linecap: butt; stroke-linejoin: miter; stroke-miterlimit: 4; fill: #0e1354; fill-rule: ; opacity: 1;">e</tspan><tspan x="69.59" y="8.98" style="stroke: none; stroke-width: 0; stroke-dasharray: none; stroke-linecap: butt; stroke-linejoin: miter; stroke-miterlimit: 4; fill: #0e1354; fill-rule: ; opacity: 1;">t</tspan><tspan x="92.95" y="8.98" style="stroke: none; stroke-width: 0; stroke-dasharray: none; stroke-linecap: butt; stroke-linejoin: miter; stroke-miterlimit: 4; fill: #0e1354; fill-rule: ; opacity: 1;">s</tspan><tspan x="114.06" y="8.98" style="stroke: none; stroke-width: 0; stroke-dasharray: none; stroke-linecap: butt; stroke-linejoin: miter; stroke-miterlimit: 4; fill: #0e1354; fill-rule: ; opacity: 1;"> </tspan><tspan x="126.05" y="8.98" style="stroke: none; stroke-width: 0; stroke-dasharray: none; stroke-linecap: butt; stroke-linejoin: miter; stroke-miterlimit: 4; fill: #0e1354; fill-rule: ; opacity: 1;">c</tspan><tspan x="153.13" y="8.98" style="stroke: none; stroke-width: 0; stroke-dasharray: none; stroke-linecap: butt; stroke-linejoin: miter; stroke-miterlimit: 4; fill: #0e1354; fill-rule: ; opacity: 1;">a</tspan><tspan x="180.92" y="8.98" style="stroke: none; stroke-width: 0; stroke-dasharray: none; stroke-linecap: butt; stroke-linejoin: miter; stroke-miterlimit: 4; fill: #0e1354; fill-rule: ; opacity: 1;">m</tspan><tspan x="215.02" y="8.98" style="stroke: none; stroke-width: 0; stroke-dasharray: none; stroke-linecap: butt; stroke-linejoin: miter; stroke-miterlimit: 4; fill: #0e1354; fill-rule: ; opacity: 1;">p</tspan><tspan x="237.44" y="8.98" style="stroke: none; stroke-width: 0; stroke-dasharray: none; stroke-linecap: butt; stroke-linejoin: miter; stroke-miterlimit: 4; fill: #0e1354; fill-rule: ; opacity: 1;">u</tspan><tspan x="265.08" y="8.98" style="stroke: none; stroke-width: 0; stroke-dasharray: none; stroke-linecap: butt; stroke-linejoin: miter; stroke-miterlimit: 4; fill: #0e1354; fill-rule: ; opacity: 1;">s</tspan><tspan x="286.19" y="8.98" style="stroke: none; stroke-width: 0; stroke-dasharray: none; stroke-linecap: butt; stroke-linejoin: miter; stroke-miterlimit: 4; fill: #0e1354; fill-rule: ; opacity: 1;"> </tspan></text>
 </g>
  <g transform="translate(333.17 65.65)">
   <text font-family="Merkin Foo" font-size="40" font-weight="normal" style="stroke: none; stroke-width: 1; stroke-dasharray: none; stroke-linecap: butt; stroke-linejoin: miter; stroke-miterlimit: 10; fill: #043885; fill-rule: nonzero; opacity: 1;" ><tspan x="-52.56" y="8.98" style="stroke: none; stroke-width: 0; stroke-dasharray: none; stroke-linecap: butt; stroke-linejoin: miter; stroke-miterlimit: 4; fill: #043885; fill-rule: ; opacity: 1;">B</tspan><tspan x="-21.48" y="8.98" style="stroke: none; stroke-width: 0; stroke-dasharray: none; stroke-linecap: butt; stroke-linejoin: miter; stroke-miterlimit: 4; fill: #043885; fill-rule: ; opacity: 1;">I</tspan><tspan x="-6.24" y="8.98" style="stroke: none; stroke-width: 0; stroke-dasharray: none; stroke-linecap: butt; stroke-linejoin: miter; stroke-miterlimit: 4; fill: #043885; fill-rule: ; opacity: 1;">T</tspan><tspan x="23.28" y="8.98" style="stroke: none; stroke-width: 0; stroke-dasharray: none; stroke-linecap: butt; stroke-linejoin: miter; stroke-miterlimit: 4; fill: #043885; fill-rule: ; opacity: 1;">E</tspan></text>
 </g>
</svg>